<svg width="33" height="48" viewBox="0 0 33 48" fill="none" xmlns="http://www.w3.org/2000/svg">
<path d="M29.085 10.9435L29.0528 10.9246L28.9782 10.9018C29.0082 10.9271 29.0458 10.9418 29.085 10.9435Z" fill="#EF6619"/>
<path d="M29.0943 10.9206C29.0904 10.9201 29.0864 10.9192 29.0827 10.9179C29.0825 10.9205 29.0825 10.923 29.0827 10.9256C29.087 10.9251 29.0909 10.9233 29.0943 10.9206Z" fill="#EF6619"/>
<path d="M29.5246 14.2852L29.579 14.2542L29.5992 14.2428L29.6175 14.2232C29.583 14.2381 29.5516 14.2591 29.5246 14.2852Z" fill="#EF6619"/>
<path d="M29.1758 11.0095L29.1227 10.9589L29.0867 10.9393C29.106 10.9735 29.1379 10.9987 29.1758 11.0095Z" fill="#EF6619"/>
<path d="M15.8046 43.6071C15.7621 43.6255 15.725 43.6542 15.6964 43.6907L15.7299 43.6691C15.7527 43.6483 15.785 43.6236 15.8046 43.6071Z" fill="#EF6619"/>
<path d="M23.5753 42.0788C23.5753 42.0307 23.5519 42.0396 23.5576 42.2103C23.5576 42.1965 23.5632 42.1825 23.5658 42.1693C23.569 42.1389 23.5715 42.1091 23.5753 42.0788Z" fill="#EF6619"/>
<path d="M22.7689 43.6071C22.7264 43.6255 22.6892 43.6542 22.6607 43.6907L22.6943 43.6691C22.7171 43.6483 22.7493 43.6236 22.7689 43.6071Z" fill="#EF6619"/>
<path d="M10.3393 43.9763C10.3071 43.9483 10.2676 43.93 10.2254 43.9232C10.2596 43.9397 10.2938 43.9562 10.3165 43.9688L10.3393 43.9763Z" fill="#EF6619"/>
<path d="M9.11456 42.7953C9.10951 42.7455 9.09422 42.6972 9.06964 42.6536C9.08705 42.699 9.10162 42.7455 9.11328 42.7928L9.11456 42.7953Z" fill="#EF6619"/>
<path d="M17.3738 21.7138C15.6849 22.4368 13.7682 23.2566 11.2841 23.2566C10.2449 23.2544 9.21079 23.112 8.20981 22.8327L9.92787 40.4719C9.98868 41.2092 10.3245 41.8966 10.8688 42.3977C11.413 42.8988 12.1257 43.1769 12.8655 43.1768C12.8655 43.1768 15.3015 43.3032 16.1143 43.3032C16.9893 43.3032 19.6124 43.1768 19.6124 43.1768C20.3522 43.1768 21.0648 42.8985 21.6088 42.3975C22.1529 41.8964 22.4887 41.2091 22.5495 40.4719L24.3897 20.9799C23.5673 20.6991 22.7374 20.5126 21.8018 20.5126C20.1838 20.5119 18.8799 21.0692 17.3738 21.7138Z" fill="#EF6619"/>
<path d="M2.88884 14.2018L2.91794 14.2289L2.93692 14.2403C2.9223 14.2259 2.90618 14.2129 2.88884 14.2018Z" fill="#EF6619"/>
<path d="M32.3358 12.5675L32.0772 11.2625C31.845 10.0917 31.3181 8.9853 30.1162 8.56211C29.731 8.42675 29.2939 8.36854 28.9985 8.08832C28.7031 7.8081 28.6157 7.37289 28.5474 6.96932C28.421 6.22857 28.3021 5.4872 28.1723 4.74774C28.0604 4.112 27.9718 3.39783 27.6801 2.8146C27.3007 2.03149 26.513 1.57351 25.73 1.27051C25.3287 1.12071 24.9192 0.99399 24.5035 0.890967C22.5469 0.374791 20.4899 0.185021 18.477 0.0768525C16.061 -0.0564599 13.6386 -0.0162949 11.2284 0.19704C9.43441 0.360242 7.54493 0.557604 5.84017 1.17816C5.21709 1.40525 4.57502 1.67788 4.10124 2.15926C3.5199 2.75072 3.33014 3.66541 3.75459 4.40298C4.05632 4.92675 4.56744 5.2968 5.10955 5.5416C5.81567 5.85703 6.55312 6.09705 7.30962 6.25767C9.41607 6.72324 11.5978 6.90605 13.7498 6.98385C16.135 7.08013 18.5241 7.00211 20.8979 6.75044C21.4848 6.68592 22.0708 6.60853 22.6558 6.51829C23.3446 6.41265 23.7868 5.51187 23.5837 4.88436C23.3408 4.13415 22.688 3.84316 21.9497 3.95638C21.841 3.97347 21.7328 3.98928 21.624 4.0051L21.5456 4.01648C21.2954 4.04812 21.0454 4.07763 20.7953 4.10505C20.2788 4.16071 19.7608 4.20626 19.2417 4.24168C18.079 4.32265 16.9133 4.35997 15.748 4.36186C14.6031 4.36186 13.4576 4.3296 12.3151 4.25433C11.7939 4.22016 11.2739 4.17673 10.7552 4.12401C10.5193 4.09935 10.284 4.07342 10.0486 4.04432L9.8247 4.01585L9.776 4.00889L9.54385 3.97536C9.06943 3.90388 8.595 3.82165 8.12562 3.72233C8.07827 3.71183 8.03591 3.68548 8.00554 3.64765C7.97518 3.60981 7.95863 3.56274 7.95863 3.51422C7.95863 3.46571 7.97518 3.41865 8.00554 3.38081C8.03591 3.34297 8.07827 3.31661 8.12562 3.30611H8.13448C8.54122 3.21945 8.95113 3.14544 9.3623 3.08092C9.49936 3.05941 9.63683 3.03832 9.77474 3.01765H9.77853C10.036 3.00058 10.2947 2.9544 10.5509 2.92404C12.7798 2.69219 15.0221 2.61315 17.2618 2.68745C18.3492 2.71909 19.4359 2.78298 20.5182 2.89305C20.751 2.91709 20.9826 2.94239 21.2141 2.97085C21.3027 2.9816 21.3919 2.99426 21.481 3.00501L21.6607 3.03094C22.1844 3.10896 22.7054 3.20363 23.2238 3.31497C23.9917 3.48196 24.9779 3.53637 25.3195 4.37769C25.4282 4.64462 25.4776 4.9413 25.5377 5.22153L25.6142 5.57892C25.6163 5.58534 25.6176 5.59189 25.6186 5.59853C25.7996 6.44196 25.9807 7.28538 26.1621 8.1288C26.1753 8.19111 26.1757 8.25548 26.1629 8.31792C26.1503 8.38035 26.1248 8.4395 26.0883 8.49167C26.0517 8.54384 26.0048 8.58792 25.9505 8.62116C25.896 8.65439 25.8354 8.67607 25.7723 8.68484H25.7673L25.6566 8.70002L25.5471 8.71457C25.2006 8.75969 24.8535 8.80186 24.506 8.84108C23.8215 8.91909 23.136 8.98656 22.4495 9.04349C21.0852 9.15694 19.7183 9.23138 18.3485 9.2668C17.6506 9.28534 16.9529 9.294 16.2554 9.29274C13.479 9.29054 10.7051 9.12918 7.94724 8.80944C7.64867 8.77402 7.35011 8.73607 7.05154 8.69748C7.28305 8.72721 6.88327 8.67471 6.80231 8.66333C6.61253 8.63675 6.42276 8.60913 6.23299 8.58046C5.596 8.48494 4.9628 8.36728 4.32707 8.26418C3.55849 8.13766 2.82345 8.20091 2.12826 8.58046C1.55761 8.89273 1.09575 9.37158 0.804295 9.95313C0.504459 10.573 0.415261 11.248 0.281163 11.9141C0.147057 12.5802 -0.0616911 13.2969 0.01738 13.9807C0.18754 15.4565 1.21926 16.6558 2.70326 16.9241C4.09934 17.1771 5.503 17.382 6.91047 17.5566C12.4393 18.2338 18.0249 18.3147 23.5711 17.7982C24.0227 17.7561 24.4737 17.71 24.9241 17.6604C25.0648 17.6449 25.2072 17.6611 25.3407 17.7078C25.4743 17.7545 25.5958 17.8304 25.6962 17.9301C25.7966 18.0298 25.8735 18.1508 25.9211 18.284C25.9689 18.4173 25.986 18.5595 25.9716 18.7003L25.8312 20.0653C25.5482 22.8238 25.2653 25.582 24.9823 28.34C24.6871 31.2363 24.3899 34.1323 24.091 37.0282C24.0066 37.8438 23.9223 38.6593 23.8379 39.4745C23.757 40.2772 23.7456 41.1052 23.5931 41.8985C23.3529 43.1459 22.5083 43.9119 21.2761 44.1922C20.1471 44.449 18.9939 44.5839 17.8361 44.5944C16.5526 44.6014 15.2698 44.5445 13.9864 44.5514C12.6162 44.559 10.938 44.4325 9.88037 43.4128C8.95113 42.5171 8.82272 41.1147 8.69621 39.9021C8.52752 38.2965 8.36032 36.6913 8.19458 35.0863L6.66313 20.3866C6.65301 20.2912 6.64289 20.197 6.6334 20.1008C6.56129 19.412 6.07358 18.7376 5.30501 18.7723C4.64715 18.8016 3.89944 19.3607 3.97663 20.1008L5.34486 33.2379C5.60759 35.7535 5.86968 38.2694 6.13114 40.7857C6.18175 41.2677 6.22919 41.751 6.28233 42.2331C6.57141 44.8671 8.58297 46.2865 11.074 46.6864C12.5289 46.9204 14.0193 46.9685 15.4957 46.9925C17.3884 47.0228 19.2999 47.0956 21.1616 46.7528C23.9202 46.2467 25.99 44.4046 26.2854 41.5474C26.3697 40.7225 26.4541 39.8974 26.5384 39.0721C26.8189 36.3428 27.0989 33.6133 27.3784 30.8836L28.7125 17.8767C28.7334 17.674 28.8191 17.4835 28.9566 17.3332C29.0942 17.1829 29.2766 17.081 29.4767 17.0423C30.2655 16.8885 31.0196 16.6261 31.5806 16.0258C32.4738 15.07 32.6516 13.8238 32.3358 12.5675ZM2.66277 13.4493C2.6748 13.4436 2.65265 13.5468 2.64317 13.5948C2.64127 13.5221 2.64507 13.4576 2.66277 13.4493ZM2.73933 14.0415C2.74565 14.0369 2.76461 14.0623 2.78423 14.0926C2.75449 14.0648 2.73617 14.0439 2.73933 14.0415ZM2.81459 14.1408C2.85635 14.216 2.8418 14.187 2.81459 14.1408ZM2.96578 14.2635H2.96957C2.96957 14.2679 2.97653 14.2723 2.97906 14.2768C2.97487 14.2719 2.97084 14.2675 2.96578 14.2635ZM29.4399 14.08C29.1566 14.3495 28.7297 14.4747 28.3077 14.5374C23.5761 15.2395 18.7756 15.595 13.992 15.4381C10.5686 15.3211 7.1812 14.941 3.79191 14.4621C3.45981 14.4153 3.09989 14.3546 2.87153 14.1098C2.44138 13.648 2.65265 12.7181 2.76461 12.1602C2.8671 11.649 3.06319 10.9678 3.67109 10.895C4.61994 10.7837 5.72188 11.1841 6.66061 11.3264C7.79079 11.4989 8.9252 11.637 10.0638 11.7408C14.9232 12.1836 19.8642 12.1146 24.7021 11.4669C25.5839 11.3484 26.4624 11.2107 27.338 11.0538C28.1179 10.914 28.9827 10.6515 29.4539 11.4593C29.7772 12.0096 29.8202 12.7459 29.7702 13.3677C29.7548 13.6387 29.637 13.8935 29.4399 14.08Z" fill="#EF6619"/>
</svg>
