<svg width="42" height="48" viewBox="0 0 42 48" fill="none" xmlns="http://www.w3.org/2000/svg">
<path d="M42 48L36.8413 43.4526L33.9335 40.7495L30.8589 37.8947L32.1221 42.3385H4.91876C2.19443 42.3288 -0.00695556 40.1138 1.65155e-05 37.3895V4.944C-0.00416405 2.22162 2.19641 0.0097494 4.91876 0H37.0813C39.8036 0.0097494 42.0042 2.22162 42 4.944V48ZM30.5684 26.5465C29.5032 27.9752 27.9696 28.9839 26.2358 29.3962C26.9482 30.3057 27.8072 31.3339 27.8147 31.344C30.7127 31.4053 33.4567 30.0422 35.1587 27.696C35.0716 22.8321 33.8904 18.0503 31.7027 13.7053C29.7768 12.1939 27.4323 11.3119 24.9878 11.1789H24.96L24.624 11.5629C26.8075 12.1494 28.8438 13.1874 30.6013 14.6097C28.365 13.3804 25.9111 12.5979 23.376 12.3057C21.7648 12.1267 20.1379 12.1428 18.5305 12.3537C18.4169 12.3559 18.3037 12.3678 18.192 12.3891H18.1213C16.2375 12.6059 14.3995 13.1174 12.6745 13.9048C11.8105 14.3015 11.28 14.5895 11.2573 14.5996C11.2345 14.6097 11.2573 14.5996 11.2573 14.5819C13.1214 13.1157 15.272 12.0563 17.5705 11.472L17.3179 11.184H17.3028C14.8583 11.3173 12.514 12.1993 10.5878 13.7103C8.39221 18.0524 7.21054 22.8361 7.13181 27.7011C8.81266 30.0628 11.5604 31.4311 14.4581 31.3491C14.4581 31.3491 15.3625 30.2476 16.0674 29.3558C14.3773 28.931 12.8881 27.9305 11.856 26.5263C11.8737 26.5389 12.1238 26.7082 12.528 26.9305C12.5552 26.9624 12.5887 26.9883 12.6265 27.0063C12.6586 27.0285 12.6924 27.0479 12.7276 27.0644C12.7675 27.0826 12.8056 27.1046 12.8413 27.1301C13.4049 27.4408 13.99 27.711 14.592 27.9385C15.7366 28.3918 16.9206 28.7385 18.1289 28.9743C19.1867 29.1738 20.2608 29.2752 21.3373 29.2775C22.3466 29.2774 23.3538 29.1843 24.3461 28.9996C25.5412 28.7897 26.7083 28.4439 27.8248 27.9688C28.7893 27.5979 29.7094 27.1209 30.5684 26.5465ZM25.4198 25.4678C24.3207 25.5636 23.2754 24.9749 22.7877 23.9853C22.2999 22.9957 22.4697 21.8081 23.2151 20.9948C23.9606 20.1815 25.1289 19.9092 26.1572 20.3091C27.1855 20.7091 27.8627 21.6992 27.8627 22.8025C27.9184 24.212 26.8263 25.4022 25.4173 25.4678H25.4198ZM16.6585 25.4678C15.2763 25.3473 14.2155 24.19 14.2155 22.8025C14.2155 21.415 15.2763 20.2577 16.6585 20.1373C17.2953 20.1392 17.9041 20.3989 18.3461 20.8573C18.8477 21.3779 19.1205 22.0773 19.104 22.8C19.1625 24.2119 18.0677 25.405 16.656 25.4678H16.6585Z" fill="#EF6619"/>
</svg>
