<svg width="46" height="45" viewBox="0 0 46 45" fill="none" xmlns="http://www.w3.org/2000/svg">
<path d="M22.9988 6.12738e-07C11.7196 -0.00145312 2.1046 8.20638 0.298717 19.3779C-1.50717 30.5494 5.02932 41.3859 15.7307 44.9618C16.8833 45.1699 17.2959 44.4599 17.2959 43.8492C17.2959 43.3011 17.2775 41.8485 17.2706 39.9172C10.8738 41.305 9.52298 36.8224 9.52298 36.8224C9.10186 35.4276 8.19655 34.2304 6.97118 33.4478C4.89656 32.0161 7.13024 32.0485 7.13024 32.0485C8.60709 32.2517 9.9069 33.1297 10.6502 34.4262C11.2793 35.574 12.3393 36.4222 13.5946 36.7822C14.8498 37.1423 16.1964 36.9844 17.3351 36.3437C17.4421 35.1733 17.961 34.0795 18.7989 33.2582C13.6953 32.6776 8.32891 30.6977 8.32891 21.8552C8.30059 19.5682 9.14701 17.3572 10.694 15.6773C9.99404 13.6865 10.0765 11.503 10.9245 9.57106C10.9245 9.57106 12.8539 8.94887 17.2452 11.9326C21.0115 10.8964 24.9862 10.8964 28.7525 11.9326C33.1461 8.94656 35.0732 9.57106 35.0732 9.57106C35.9252 11.5021 36.0076 13.6872 35.3037 15.6773C36.8563 17.357 37.7021 19.5738 37.6642 21.8645C37.6642 30.7301 32.2932 32.6776 27.1712 33.2489C28.2761 34.3824 28.8427 35.9374 28.7271 37.5186C28.7271 40.6041 28.6995 43.0929 28.6995 43.8492C28.6995 44.4668 29.1098 45.1838 30.2831 44.9572C40.98 41.3752 47.5095 30.5381 45.6999 19.3695C43.8903 8.20098 34.2757 -0.00258861 22.9988 6.12738e-07Z" fill="#EF6619"/>
</svg>
