<svg width="49" height="48" viewBox="0 0 49 48" fill="none" xmlns="http://www.w3.org/2000/svg">
<path d="M27.2222 48H16.3333V16H27.2222V21.3333C29.5432 18.4407 33.063 16.7162 36.818 16.632C43.5707 16.6687 49.0195 22.0517 48.9999 28.6667V48H38.111V30C37.6756 27.0203 35.0669 24.8095 31.9942 24.816C30.6502 24.8576 29.3815 25.4341 28.481 26.4123C27.5805 27.3906 27.1259 28.6861 27.2222 30V48ZM10.8889 48H0V16H10.8889V48ZM5.44443 10.6667C2.43756 10.6667 0 8.27885 0 5.33333C0 2.38781 2.43756 0 5.44443 0C8.45131 0 10.8889 2.38781 10.8889 5.33333C10.8889 6.74782 10.3153 8.10438 9.29423 9.10457C8.2732 10.1048 6.88839 10.6667 5.44443 10.6667Z" fill="#EF6619"/>
</svg>
