<svg width="100" height="100" viewBox="0 0 100 100" fill="none" xmlns="http://www.w3.org/2000/svg">
<path fill-rule="evenodd" clip-rule="evenodd" d="M50 100C77.6142 100 100 77.6142 100 50C100 22.3858 77.6142 0 50 0C22.3858 0 0 22.3858 0 50C0 77.6142 22.3858 100 50 100ZM42 25C37.584 25 34 28.7333 34 33.3333C34 37.9299 37.5787 41.6611 41.9901 41.6666C37.5787 41.6722 34 45.4034 34 49.9999C34 54.5999 37.584 58.3332 42 58.3332C37.584 58.3332 34 62.0666 34 66.6666C34 71.2666 37.584 75 42 75C46.416 75 50 71.2666 50 66.6666V58.3332V41.6666H57.985C53.5759 41.6751 50 45.4051 50 49.9999C50 54.5999 53.584 58.3332 58 58.3332C62.416 58.3332 66 54.5999 66 49.9999C66 45.4034 62.4213 41.6722 58.0098 41.6666C62.4213 41.6611 66 37.9299 66 33.3333C66 28.7333 62.416 25 58 25H50H42Z" fill="#EF6619"/>
</svg>
