<svg width="100" height="100" viewBox="0 0 100 100" fill="none" xmlns="http://www.w3.org/2000/svg">
<path fill-rule="evenodd" clip-rule="evenodd" d="M50 100C77.6142 100 100 77.6142 100 50C100 22.3858 77.6142 0 50 0C22.3858 0 0 22.3858 0 50C0 77.6142 22.3858 100 50 100ZM71.0552 63.8982C68.3348 63.8305 66.2263 64.1021 64.458 64.8489C64.3295 64.9002 64.1815 64.9385 64.031 64.9776L64.0308 64.9776C63.5839 65.0935 63.1145 65.2152 63.0636 65.6978C63.2181 65.852 63.2958 66.0609 63.3777 66.281L63.3777 66.2811C63.4401 66.4486 63.5048 66.6227 63.6078 66.7841C64.0163 67.463 64.7299 68.3797 65.3761 68.8553C66.0901 69.3984 66.8045 69.9414 67.5524 70.4168C68.2033 70.8167 68.8952 71.1348 69.5838 71.4514C70.2984 71.7799 71.0094 72.1068 71.6674 72.5217C72.0951 72.7932 72.5225 73.1092 72.9499 73.4252L72.9506 73.4257C73.2709 73.6625 73.5912 73.8994 73.9117 74.1174C74.052 74.2191 74.1732 74.3449 74.2949 74.4712L74.295 74.4713C74.4978 74.6818 74.7024 74.894 75 75V74.8983C74.8771 74.7405 74.7994 74.5467 74.7204 74.3494L74.7204 74.3493C74.6463 74.1642 74.571 73.9761 74.4558 73.8118C74.2851 73.6411 74.1141 73.479 73.9431 73.3169L73.9424 73.3162L73.9421 73.3159C73.7732 73.1558 73.6043 72.9957 73.4355 72.8271C72.4494 71.5033 71.2253 70.3489 69.8991 69.3984C69.6178 69.2053 69.2502 68.994 68.852 68.7653C67.7097 68.109 66.316 67.3082 65.9883 66.3766L65.9581 66.3468L65.9202 66.3089C66.5905 66.2481 67.37 66.0237 68.0387 65.8311L68.0391 65.831L68.2155 65.7803L68.2668 65.7657C68.8479 65.612 69.4033 65.5527 69.9632 65.493C70.5171 65.4339 71.0754 65.3744 71.6674 65.2224C72.2114 65.0866 72.7555 64.9168 73.2995 64.747V64.4416C73.0196 64.162 72.7752 63.8398 72.5305 63.5172C72.2404 63.1347 71.9499 62.7517 71.5994 62.4386C69.8651 60.9444 67.9605 59.4847 65.9883 58.2626C65.3473 57.8497 64.5931 57.5247 63.8481 57.2037C63.3678 56.9966 62.8913 56.7913 62.4514 56.5651C62.3151 56.4969 62.1484 56.4402 61.9779 56.3822C61.6383 56.2666 61.2838 56.146 61.1254 55.92C60.6846 55.3824 60.3849 54.7217 60.0867 54.0644C59.9706 53.8086 59.8548 53.5532 59.731 53.3059C58.7451 51.4384 57.7926 49.3676 56.9423 47.3987C56.7195 46.9162 56.5281 46.4338 56.3388 45.9563L56.3387 45.9562C56.0083 45.1231 55.6838 44.305 55.2082 43.5283C51.7056 37.7567 47.8968 34.2598 42.0478 30.8306C40.8991 30.1799 39.5522 29.8686 38.1104 29.5353C37.9727 29.5035 37.8342 29.4714 37.6949 29.4389C37.2701 29.4218 36.8451 29.3964 36.42 29.3709C35.9949 29.3454 35.5697 29.32 35.1445 29.3029C34.8218 29.1619 34.4991 28.8777 34.1906 28.606C33.9789 28.4196 33.7738 28.2391 33.5801 28.1147C31.6421 26.8924 26.6428 24.2445 25.2145 27.7414C24.452 29.5739 25.8942 31.383 26.8529 32.5856L26.8531 32.5858L26.8533 32.5861L26.8537 32.5866C27.0491 32.8317 27.2244 33.0516 27.3568 33.2414C27.4792 33.4066 27.6092 33.5764 27.742 33.7497L27.7422 33.7499L27.7422 33.75C28.2368 34.3958 28.7696 35.0916 29.0913 35.7875C29.2133 36.0831 29.2906 36.3878 29.369 36.6968L29.369 36.6968C29.4436 36.9909 29.5192 37.289 29.6353 37.5869C29.7655 37.944 29.8937 38.3109 30.0232 38.6815L30.0232 38.6816L30.0232 38.6816L30.0232 38.6817C30.4352 39.8607 30.8603 41.0772 31.4038 42.1364C31.7779 42.8492 32.1859 43.596 32.662 44.2411C32.7524 44.3652 32.8653 44.4667 32.9795 44.5695C33.2091 44.7761 33.444 44.9874 33.5123 45.3954C33.2019 45.8382 33.0794 46.4253 32.9562 47.0156L32.9562 47.0156L32.9562 47.0157L32.9562 47.0157C32.8905 47.3307 32.8246 47.6465 32.7298 47.9417C31.5056 51.7781 31.982 56.5311 33.7161 59.3489C34.2601 60.1974 35.5525 62.0653 37.2868 61.352C38.381 60.9152 38.5191 59.8016 38.6703 58.5818C38.7306 58.0955 38.793 57.5923 38.9189 57.1084C38.9561 56.9603 38.9708 56.8302 38.9842 56.7116V56.7115C39.0078 56.5035 39.0273 56.3306 39.1572 56.1576V56.2257C39.2742 56.4593 39.3911 56.6907 39.5076 56.9212L39.5096 56.9252C39.8665 57.6313 40.2185 58.3279 40.5514 59.0435C41.6057 60.7069 43.4419 62.4386 44.9721 63.593C45.2719 63.8172 45.5486 64.101 45.8294 64.3889C46.3133 64.8851 46.8091 65.3935 47.4549 65.6298V65.5278H47.3867C47.2525 65.327 47.0744 65.1995 46.8908 65.0683L46.8907 65.0682C46.795 64.9997 46.6978 64.9302 46.6046 64.8487C45.9926 64.2379 45.3122 63.4909 44.8363 62.8119C43.4082 60.9104 42.1497 58.8057 41.0275 56.6328C40.522 55.6549 40.0748 54.5887 39.6594 53.5982L39.5653 53.3738C39.4906 53.2248 39.4433 53.0486 39.3966 52.8751C39.3156 52.5739 39.2368 52.2808 39.0211 52.1516C38.8428 52.4127 38.6354 52.6613 38.4251 52.9135L38.425 52.9135C38.0337 53.3827 37.6322 53.864 37.3888 54.4601C36.878 55.6148 36.7286 56.9819 36.5706 58.4269C36.5288 58.8088 36.4865 59.1961 36.4367 59.5864C36.3988 59.596 36.3768 59.6002 36.3632 59.6028C36.3576 59.6039 36.3535 59.6047 36.3502 59.6055C36.3459 59.6065 36.3432 59.6075 36.3409 59.6092C36.3383 59.611 36.3362 59.6137 36.3328 59.6181C36.3276 59.6249 36.3192 59.636 36.3005 59.6547C35.31 59.4071 34.9112 58.4565 34.5396 57.5708C34.503 57.4836 34.4667 57.3971 34.4301 57.3119C33.4098 54.9015 33.2398 51.0312 34.1242 48.2473C34.1694 48.112 34.2427 47.9218 34.3291 47.6977C34.698 46.7403 35.3052 45.1649 34.9745 44.6146C34.8461 44.2086 34.529 43.9102 34.2184 43.6179C34.0354 43.4457 33.8547 43.2756 33.7161 43.0869C33.2742 42.4418 32.7978 41.6272 32.4919 40.914C32.1112 40.0271 31.8192 39.0959 31.5263 38.1617L31.5263 38.1617C31.1914 37.0932 30.8552 36.0209 30.3835 35.0066C30.0491 34.2833 29.5095 33.5374 29.0073 32.8433C28.8966 32.6902 28.7877 32.5397 28.6832 32.3925C28.4641 32.0817 28.2372 31.8021 28.0131 31.5259C27.5763 30.9876 27.15 30.4623 26.8128 29.7443C26.643 29.371 26.4047 28.7598 26.6768 28.3524C26.7448 28.0807 26.8807 27.9791 27.1529 27.9112C27.5951 27.5375 28.8534 28.0128 29.2952 28.2166C30.5536 28.7255 31.6077 29.2012 32.662 29.9141C32.8173 30.0249 32.9762 30.1682 33.1411 30.3169L33.1412 30.317C33.4817 30.624 33.8478 30.9541 34.2601 31.0685H34.9743C35.4755 31.1779 36.0054 31.2009 36.5309 31.2238C37.1467 31.2505 37.7564 31.277 38.3069 31.4418C40.1094 32.0188 41.7415 32.8677 43.204 33.7844C47.6589 36.6022 51.3312 40.6084 53.814 45.3954C54.043 45.8334 54.197 46.2503 54.3542 46.6758L54.3542 46.6758L54.3542 46.6759C54.4771 47.0086 54.6019 47.3465 54.7661 47.7039C55.1426 48.5807 55.5662 49.4669 55.9872 50.3475L55.9874 50.348C56.3652 51.1382 56.7408 51.9241 57.0784 52.6947C57.1452 52.8439 57.2116 52.9933 57.2781 53.1428L57.2795 53.1459C57.9236 54.5943 58.5686 56.0446 59.4929 57.2442C59.852 57.7457 60.969 58.0794 61.9193 58.3633L61.9194 58.3633C62.3192 58.4827 62.6896 58.5934 62.9616 58.704C63.2278 58.8235 63.5513 58.9379 63.8832 59.0553L63.8833 59.0553C64.3994 59.2377 64.9356 59.4273 65.3081 59.6545C66.4642 60.3672 67.6204 61.1824 68.7087 61.963C68.8456 62.0655 69.0555 62.1959 69.2948 62.3444L69.2949 62.3445L69.2951 62.3446C70.0072 62.7868 70.9787 63.3901 71.0552 63.8982ZM36.3679 34.3952C35.7899 34.3952 35.382 34.4635 34.9739 34.5652V34.6331H35.0419C35.2081 34.9647 35.4501 35.2331 35.6908 35.5C35.8444 35.6703 35.9974 35.8399 36.1298 36.025C36.2661 36.2968 36.3938 36.5688 36.5214 36.8407L36.5215 36.8408L36.5215 36.8409L36.5215 36.8409C36.6489 37.1122 36.7763 37.3835 36.9123 37.6548C36.9461 37.6207 36.9801 37.5869 36.9801 37.5869C37.4564 37.2472 37.6943 36.7041 37.6943 35.8892C37.5809 35.7572 37.52 35.6252 37.4591 35.4932C37.4104 35.3876 37.3617 35.282 37.2862 35.1764C37.1631 34.9712 36.953 34.8281 36.746 34.6871C36.6102 34.5946 36.4757 34.5029 36.3679 34.3952Z" fill="#EF6619"/>
</svg>
