<svg width="100" height="100" viewBox="0 0 100 100" fill="none" xmlns="http://www.w3.org/2000/svg">
<path fill-rule="evenodd" clip-rule="evenodd" d="M50 100C77.6142 100 100 77.6142 100 50C100 22.3858 77.6142 0 50 0C22.3858 0 0 22.3858 0 50C0 77.6142 22.3858 100 50 100ZM47.7441 23.5974C49.1103 22.8026 50.8898 22.799 52.2548 23.5974C55.0955 25.2288 57.9366 26.8592 60.7777 28.4895L60.7781 28.4898L60.7785 28.49L60.7917 28.4976C64.8141 30.8058 68.8365 33.114 72.8577 35.4252C74.1492 36.1645 75.013 37.6253 74.9999 39.1377V62.8653C75.0095 64.4404 74.0603 65.936 72.6978 66.6586C69.097 68.7219 65.4972 70.7865 61.8975 72.8511L61.8884 72.8562L61.8794 72.8614C58.6424 74.7179 55.4056 76.5744 52.1682 78.4297C50.7738 79.2401 48.9586 79.1776 47.6077 78.3009C46.4909 77.6429 45.3731 76.9867 44.2554 76.3305L44.2437 76.3237C43.3115 75.7764 42.3793 75.2291 41.4478 74.6809C41.3602 74.6279 41.2704 74.5771 41.1802 74.5262C40.8387 74.3332 40.4939 74.1383 40.2596 73.8113C40.4509 73.5492 40.7524 73.4548 41.0494 73.3619C41.1587 73.3277 41.2674 73.2936 41.3697 73.2515C42.1744 72.9914 42.9174 72.5835 43.6569 72.1775L43.7999 72.0991C43.9989 71.9607 44.2418 72.0137 44.4326 72.1376C45.1813 72.5739 45.9273 73.0157 46.6733 73.4575L46.6739 73.4578L46.6745 73.4582L46.6759 73.459L46.6765 73.4594C47.6777 74.0523 48.6789 74.6452 49.6872 75.2252C50.0145 75.4172 50.3453 75.2198 50.6374 75.0455C50.6806 75.0198 50.7229 74.9945 50.7642 74.9711C53.9672 73.1312 57.1721 71.2946 60.377 69.4581L60.3848 69.4536C63.898 67.4404 67.4111 65.4271 70.9216 63.4096C71.1705 63.288 71.308 63.0195 71.2878 62.7425C71.2908 57.7739 71.2905 52.8047 71.2901 47.8357V47.8017C71.2899 44.9542 71.2898 42.1067 71.2902 39.2593C71.3186 38.945 71.1397 38.656 70.86 38.5274C67.0722 36.3593 63.2854 34.1894 59.4987 32.0195L59.4547 31.9943L59.4366 31.9839C56.4251 30.2582 53.4136 28.5326 50.4017 26.8079C50.2836 26.7253 50.1436 26.681 50.0002 26.6808C49.8568 26.6806 49.7167 26.7245 49.5983 26.8067C46.5732 28.5395 43.5487 30.2737 40.5244 32.0079C36.7307 34.1832 32.937 36.3585 29.1423 38.5307C28.8637 38.6596 28.6767 38.9438 28.7098 39.2593C28.7106 44.4775 28.7104 49.6962 28.7101 54.9151L28.7098 62.7437C28.698 62.8788 28.7272 63.0145 28.7935 63.1322C28.8598 63.25 28.9601 63.3443 29.0807 63.4025C30.2779 64.0924 31.4761 64.7792 32.6743 65.466L32.6804 65.4695L32.6835 65.4713L32.6948 65.4777C33.3112 65.8311 33.9277 66.1844 34.544 66.5381C35.5699 67.0994 36.8295 67.4329 37.9599 67.0029C38.9573 66.6393 39.6565 65.6047 39.6375 64.5283C39.642 60.8227 39.6411 57.1168 39.6403 53.411V53.411V53.4109V53.4109C39.6393 49.3348 39.6384 45.2589 39.6446 41.1836C39.6196 40.8381 39.9421 40.5527 40.2725 40.5852C41.147 40.5793 42.0226 40.5733 42.897 40.5876C43.262 40.5793 43.5132 40.9512 43.4681 41.2993C43.4668 44.1842 43.4677 47.0691 43.4686 49.9541C43.4702 54.9001 43.4718 59.8461 43.4622 64.792C43.4645 66.879 42.6209 69.1499 40.7215 70.1711C38.3816 71.403 35.4894 71.1418 33.1778 69.9604C31.9317 69.3283 30.721 68.6253 29.5103 67.9222L29.5102 67.9221L29.5101 67.922L29.5099 67.922L29.5095 67.9217C28.776 67.4958 28.0425 67.0698 27.3011 66.6596C25.935 65.941 24.9906 64.4394 25.0002 62.8655V39.1377C24.9858 37.5939 25.884 36.1067 27.2157 35.3781C32.3751 32.4188 37.5338 29.4578 42.6923 26.497L47.7441 23.5974ZM53.7143 40.0337C56.6991 39.8384 59.8944 39.918 62.5803 41.4125C64.6599 42.5577 65.8128 44.9612 65.8495 47.3093C65.7914 47.626 65.4656 47.8007 65.1681 47.779C64.8947 47.7786 64.6212 47.7796 64.3477 47.7807C63.7551 47.783 63.1625 47.7853 62.5699 47.773C62.2026 47.7873 61.9891 47.4431 61.943 47.113C61.6941 45.9895 61.0913 44.8768 60.0508 44.3349C58.4954 43.5434 56.6983 43.5615 54.9968 43.5787L54.8602 43.58C53.5887 43.6486 52.2215 43.7605 51.1444 44.5204C50.3175 45.096 50.0663 46.258 50.3614 47.1938C50.6278 47.837 51.3385 48.0632 51.9465 48.2566L52.0273 48.2824C53.5992 48.7002 55.2121 48.9173 56.8244 49.1343L56.8245 49.1343C58.9017 49.4138 60.9779 49.6933 62.9644 50.4017C64.4252 50.9146 65.8542 51.9119 66.3542 53.4664C67.0083 55.5498 66.7216 58.04 65.2631 59.7126C64.0804 61.089 62.3578 61.8381 60.6398 62.245C58.3542 62.7629 55.9822 62.7761 53.6612 62.5461C51.4786 62.2932 49.2073 61.7104 47.5224 60.199C46.0817 58.9276 45.378 56.9465 45.4478 55.0344C45.4645 54.7115 45.7808 54.4863 46.0852 54.5128C46.9573 54.5057 47.8294 54.5033 48.7014 54.514C49.0498 54.4887 49.308 54.7947 49.3259 55.1283C49.4868 56.1988 49.8826 57.3222 50.801 57.9569C52.4246 59.0215 54.4271 59.0441 56.3119 59.0654C56.4847 59.0673 56.6565 59.0692 56.8269 59.072C56.9141 59.068 57.0018 59.0643 57.09 59.0604C58.7026 58.9908 60.4668 58.9147 61.7677 57.8438C62.4916 57.1996 62.7061 56.1218 62.5105 55.1946C62.2985 54.4117 61.4928 54.0469 60.8009 53.8084C59.107 53.2638 57.3441 53.0733 55.5818 52.8828C53.6497 52.674 51.7182 52.4652 49.8791 51.79C48.4514 51.2772 47.0709 50.3077 46.5224 48.8171C45.7571 46.7073 46.1078 44.0978 47.7191 42.4817C49.2902 40.8742 51.5581 40.2553 53.7143 40.0337Z" fill="#EF6619"/>
</svg>
