<svg width="100" height="100" viewBox="0 0 100 100" fill="none" xmlns="http://www.w3.org/2000/svg">
<path fill-rule="evenodd" clip-rule="evenodd" d="M50 100C77.6142 100 100 77.6142 100 50C100 22.3858 77.6142 0 50 0C22.3858 0 0 22.3858 0 50C0 77.6142 22.3858 100 50 100ZM49.8199 25C37.1268 25 37.9193 30.5333 37.9193 30.5333L37.9334 36.2659H50.0463V37.987H33.1224C33.1224 37.987 25 37.061 25 49.9352C25 62.8098 32.0894 62.3532 32.0894 62.3532H36.3203V56.3789C36.3203 56.3789 36.0922 49.2525 43.2966 49.2525H55.3103C55.3103 49.2525 62.0601 49.3621 62.0601 42.695V31.6714C62.0601 31.6714 63.0852 25 49.8199 25ZM43.1409 28.8551C43.4271 28.8548 43.7106 28.9113 43.9751 29.0213C44.2396 29.1313 44.4799 29.2926 44.6823 29.4961C44.8847 29.6995 45.0452 29.9411 45.1547 30.207C45.2641 30.4729 45.3203 30.7578 45.32 31.0456C45.3203 31.3333 45.2641 31.6182 45.1547 31.8841C45.0452 32.15 44.8847 32.3916 44.6823 32.595C44.4799 32.7985 44.2396 32.9598 43.9751 33.0698C43.7106 33.1798 43.4271 33.2363 43.1409 33.236C42.8547 33.2363 42.5712 33.1798 42.3067 33.0698C42.0422 32.9598 41.8019 32.7985 41.5995 32.595C41.3971 32.3916 41.2366 32.15 41.1272 31.8841C41.0177 31.6182 40.9616 31.3333 40.9618 31.0456C40.9616 30.7578 41.0177 30.4729 41.1272 30.207C41.2366 29.9411 41.3971 29.6995 41.5995 29.4961C41.8019 29.2926 42.0422 29.1313 42.3067 29.0213C42.5712 28.9113 42.8547 28.8548 43.1409 28.8551ZM50.1803 75C62.8734 75 62.0809 69.4667 62.0809 69.4667L62.0668 63.7343H49.9537V62.0132H66.8776C66.8776 62.0132 75 62.9392 75 50.0645C75 37.1901 67.9106 37.6467 67.9106 37.6467H63.6797V43.6208C63.6797 43.6208 63.9078 50.7473 56.7034 50.7473H44.6897C44.6897 50.7473 37.9399 50.6376 37.9399 57.3049V68.3288C37.9399 68.3288 36.9152 75 50.1803 75ZM56.8593 71.1453C56.5731 71.1456 56.2896 71.0891 56.0251 70.9791C55.7606 70.8691 55.5203 70.7078 55.3179 70.5043C55.1155 70.3008 54.955 70.0593 54.8456 69.7934C54.7361 69.5275 54.6799 69.2426 54.6802 68.9548C54.6799 68.6671 54.7361 68.3821 54.8455 68.1162C54.9549 67.8503 55.1154 67.6087 55.3178 67.4052C55.5202 67.2017 55.7605 67.0404 56.025 66.9304C56.2896 66.8204 56.573 66.7639 56.8593 66.7641C57.1455 66.7639 57.429 66.8204 57.6935 66.9304C57.958 67.0404 58.1983 67.2017 58.4007 67.4051C58.6031 67.6086 58.7636 67.8502 58.873 68.1161C58.9825 68.3819 59.0386 68.6669 59.0384 68.9546C59.0386 69.2424 58.9825 69.5273 58.873 69.7932C58.7636 70.0591 58.6031 70.3007 58.4007 70.5041C58.1983 70.7076 57.958 70.8689 57.6935 70.9789C57.429 71.0889 57.1455 71.1456 56.8593 71.1453Z" fill="#EF6619"/>
</svg>
