<svg width="32" height="44" viewBox="0 0 32 44" fill="none" xmlns="http://www.w3.org/2000/svg">
<path d="M7.99998 0.157684C3.58399 0.157684 0 3.36691 0 7.32113C0 11.2724 3.57867 14.4798 7.99014 14.4846C3.57867 14.4893 0 17.6967 0 21.648C0 25.6022 3.58399 28.8114 7.99998 28.8114H16V14.4846V0.157684H7.99998Z" fill="white"/>
<path d="M7.99998 43.1384C12.416 43.1384 16 39.9292 16 35.9749V28.8114H7.99998C3.58399 28.8114 0 32.0207 0 35.9749C0 39.9292 3.58399 43.1384 7.99998 43.1384Z" fill="white"/>
<path d="M16 0.157684H24C28.416 0.157684 32 3.36691 32 7.32113C32 11.2724 28.4213 14.4798 24.0098 14.4846C28.4213 14.4893 32 17.6967 32 21.648C32 25.6022 28.416 28.8114 24 28.8114C19.584 28.8114 16 25.6022 16 21.648C16 17.6982 19.5759 14.4918 23.985 14.4846H16V0.157684Z" fill="white"/>
</svg>
