<svg width="50" height="44" viewBox="0 0 50 44" fill="none" xmlns="http://www.w3.org/2000/svg">
<path d="M25 0.157684C11.1872 0.157684 0 9.92106 0 21.9758C0 32.2294 8.0617 40.7394 18.9383 43.1384C18.8128 42.8655 18.7511 42.483 18.7511 42.1023V38.3923H15.6255C13.9383 38.3923 12.3745 37.7387 11.6872 36.5373C10.8745 35.2282 10.7489 33.2098 8.68723 31.9546C8.0617 31.5182 8.5617 31.0818 9.24894 31.1357C10.5617 31.4625 11.6234 32.2275 12.6234 33.3713C13.6234 34.517 14.0617 34.79 15.9362 34.79C16.8106 34.79 18.1851 34.7361 19.4362 34.5709C20.1234 33.0427 21.3106 31.6797 22.7489 31.0261C14.3745 30.1534 10.3745 26.553 10.3745 21.6434C10.3745 19.5155 11.4362 17.497 13.1872 15.7516C12.6255 14.06 11.8745 10.5691 13.4383 9.20616C17.1894 9.20616 19.4383 11.3341 20 11.8782C21.8745 11.3323 23.9383 11.0055 26.0617 11.0055C28.2489 11.0055 30.2489 11.3323 32.1234 11.8782C32.6851 11.3323 34.9362 9.20616 38.6851 9.20616C40.1851 10.5153 39.4979 14.06 38.8723 15.7516C40.6234 17.4432 41.6234 19.5155 41.6234 21.6434C41.6234 26.553 37.6851 30.1534 29.3745 30.9166C31.6872 31.9527 33.3128 34.8977 33.3128 37.0795V42.0485C33.3128 42.2119 33.2511 42.3753 33.2511 42.5387C43 39.5937 50 31.5219 50 21.9758C50 9.92106 38.8128 0.157684 25 0.157684Z" fill="white"/>
</svg>
