<svg width="50" height="49" viewBox="0 0 50 49" fill="none" xmlns="http://www.w3.org/2000/svg">
<path d="M27.2548 0.513569C25.8898 -0.172732 24.1103 -0.169646 22.7441 0.513569C21.0601 1.34435 19.3762 2.1752 17.6923 3.00605C12.5338 5.55127 7.37506 8.09657 2.21569 10.6404C0.884022 11.2667 -0.0141564 12.5452 0.000168901 13.8722V34.269C-0.00944672 35.6219 0.935043 36.9127 2.30105 37.5305C3.04265 37.8832 3.77629 38.2494 4.50988 38.6156C5.72077 39.2201 6.93154 39.8245 8.17777 40.3679C10.4894 41.3834 13.3816 41.608 15.7215 40.5489C17.6209 39.6711 18.4645 37.719 18.4622 35.925C18.4718 31.6734 18.4702 27.4218 18.4686 23.1701C18.4677 20.6902 18.4668 18.2102 18.4681 15.7303C18.5132 15.4311 18.262 15.1114 17.897 15.1186C17.0226 15.1063 16.147 15.1114 15.2725 15.1165C14.9421 15.0886 14.6196 15.3339 14.6446 15.6309C14.6384 19.1341 14.6393 22.6379 14.6403 26.1418C14.6411 29.3273 14.642 32.513 14.6375 35.6984C14.6565 36.6237 13.9573 37.513 12.9599 37.8255C11.8295 38.1952 10.5699 37.9085 9.54397 37.426C8.92766 37.1219 8.31122 36.8182 7.69477 36.5145C6.48974 35.9208 5.28472 35.3271 4.08073 34.7306C3.96008 34.6806 3.85985 34.5995 3.79353 34.4983C3.72722 34.397 3.69801 34.2805 3.70984 34.1643C3.70984 31.9211 3.70997 29.6779 3.7101 27.4347C3.71036 22.9485 3.71062 18.4624 3.70984 13.9768C3.67667 13.7055 3.86369 13.4612 4.14234 13.3505C7.93705 11.4832 11.7307 9.61328 15.5244 7.74332C18.5487 6.2526 21.5732 4.76183 24.5983 3.27232C24.7167 3.20165 24.8568 3.16393 25.0002 3.16411C25.1436 3.1643 25.2835 3.20238 25.4017 3.27335C28.4136 4.7559 31.4251 6.2393 34.4366 7.72272C38.244 9.59817 42.0515 11.4737 45.86 13.3476C46.1397 13.4581 46.3186 13.7066 46.2902 13.9768C46.2898 16.4244 46.29 18.8721 46.2901 21.3199C46.2905 25.6011 46.2908 29.8824 46.2878 34.1632C46.308 34.4014 46.1705 34.6321 45.9216 34.7367C42.4085 36.4723 38.8928 38.2042 35.377 39.936C32.1721 41.5148 28.9672 43.0935 25.7642 44.6752C25.7229 44.6953 25.6806 44.717 25.6374 44.7391C25.3453 44.8889 25.0145 45.0587 24.6872 44.8936C23.6787 44.3949 22.6773 43.8851 21.6759 43.3753C20.929 42.9951 20.1822 42.6149 19.4326 42.2394C19.2418 42.1329 18.9989 42.0873 18.7999 42.2063C18.7522 42.2288 18.7046 42.2513 18.6569 42.2738C17.9174 42.6227 17.1744 42.9734 16.3697 43.1969C16.2674 43.2332 16.1587 43.2624 16.0493 43.2918C15.7524 43.3717 15.4509 43.4529 15.2596 43.6782C15.4939 43.9593 15.8387 44.1268 16.1802 44.2927C16.2704 44.3364 16.3602 44.3801 16.4478 44.4257C17.3832 44.8989 18.3193 45.3713 19.2554 45.8437C20.3731 46.4078 21.4909 46.9718 22.6077 47.5375C23.9586 48.2911 25.7738 48.3448 27.1682 47.6482C30.4116 46.0503 33.6545 44.4516 36.8975 42.8527C40.4972 41.078 44.097 39.3032 47.6978 37.5296C49.0603 36.9084 50.0095 35.6228 49.9999 34.2689V13.8722C50.013 12.5721 49.1492 11.3164 47.8577 10.6809C43.8365 8.69417 39.8141 6.70999 35.7917 4.7258C32.946 3.32203 30.1002 1.91826 27.2548 0.513569Z" fill="white"/>
<path d="M37.5803 15.8276C34.8944 14.543 31.6991 14.4746 28.7143 14.6424C26.5581 14.8329 24.2902 15.3649 22.7191 16.7468C21.1078 18.136 20.7571 20.3792 21.5224 22.1928C22.0709 23.4741 23.4514 24.3075 24.8791 24.7483C26.7182 25.3287 28.6497 25.5082 30.5818 25.6877C32.3441 25.8515 34.107 26.0153 35.8009 26.4834C36.4928 26.6884 37.2986 27.002 37.5105 27.6749C37.7061 28.472 37.4916 29.3985 36.7677 29.9522C35.4668 30.8728 33.7026 30.9383 32.09 30.9981C32.0018 31.0014 31.9141 31.0046 31.8269 31.008C31.6565 31.0057 31.4847 31.004 31.3119 31.0023C29.4271 30.984 27.4246 30.9646 25.801 30.0495C24.8826 29.5039 24.4868 28.5382 24.3259 27.618C24.308 27.3312 24.0498 27.0682 23.7014 27.09C22.8294 27.0807 21.9573 27.0828 21.0852 27.0889C20.7808 27.0661 20.4645 27.2597 20.4478 27.5373C20.378 29.1809 21.0817 30.8839 22.5224 31.9769C24.2073 33.2761 26.4786 33.7771 28.6611 33.9944C30.9822 34.1921 33.3542 34.1808 35.6398 33.7356C37.3578 33.3858 39.0804 32.7419 40.2631 31.5587C41.7216 30.121 42.0083 27.9803 41.3542 26.1893C40.8542 24.8531 39.4252 23.9959 37.9644 23.5549C35.9779 22.9459 33.9017 22.7057 31.8245 22.4654C30.2121 22.2789 28.5992 22.0923 27.0273 21.7331C27.0006 21.7258 26.9737 21.7184 26.9465 21.711C26.3385 21.5447 25.6278 21.3503 25.3614 20.7974C25.0663 19.9929 25.3175 18.9941 26.1444 18.4993C27.2215 17.8461 28.5887 17.7499 29.8602 17.6909C29.9056 17.6905 29.9512 17.6901 29.9968 17.6897C31.6983 17.675 33.4954 17.6594 35.0508 18.3398C36.0913 18.8057 36.6941 19.7622 36.943 20.7279C36.9891 21.0117 37.2026 21.3076 37.5699 21.2952C38.1625 21.3058 38.7551 21.3038 39.3477 21.3019C39.6212 21.301 39.8947 21.3001 40.1681 21.3004C40.4656 21.3191 40.7914 21.1689 40.8495 20.8966C40.8128 18.8782 39.6599 16.8121 37.5803 15.8276Z" fill="white"/>
</svg>
